Coordinates
version=1
nRows=78
nColumns=6
inDegrees=yes

Units are S.I. units (second, meters, Newtons, ...)
If the header above contains a line with 'inDegrees', this indicates whether rotational values are in degrees (yes) or radians (no).

endheader
time	foot_tx	hip_flexion_r	knee_angle_r	ankle_angle_r	lumbar
     47.00000000	      0.20283571	     66.43502599	    -74.91396134	      3.49094153	     -9.11086319
     47.01000000	      0.20285363	     66.42973673	    -74.91895564	      3.49262189	     -9.10969905
     47.02000000	      0.20284445	     66.39111067	    -74.92561911	      3.49778867	     -9.15993763
     47.03000000	      0.20285004	     66.39502860	    -74.92915490	      3.49473592	     -9.16701473
     47.04000000	      0.20284602	     66.34116832	    -74.92891222	      3.49391566	     -9.25049590
     47.05000000	      0.20283691	     66.31473419	    -74.92808409	      3.48910263	     -9.30777934
     47.06000000	      0.20282859	     66.28783428	    -74.92430609	      3.48152684	     -9.37187266
     47.07000000	      0.20282186	     66.26325708	    -74.91777351	      3.47114530	     -9.43816507
     47.08000000	      0.20281454	     66.23999611	    -74.90924241	      3.45890016	     -9.50664817
     47.09000000	      0.20280473	     66.21862646	    -74.89933012	      3.44558312	     -9.57540098
     47.10000000	      0.20279045	     66.19860958	    -74.88819976	      3.43188358	     -9.64338410
     47.11000000	      0.20278472	     66.20954046	    -74.87490523	      3.41388593	     -9.67498690
     47.12000000	      0.20275084	     66.16735141	    -74.86570142	      3.40522578	     -9.76983295
     47.13000000	      0.20273501	     66.18014350	    -74.85350016	      3.38945084	     -9.79804275
     47.14000000	      0.20270586	     66.14276746	    -74.84254064	      3.38089767	     -9.88216233
     47.15000000	      0.20268487	     66.13401938	    -74.83166163	      3.37004294	     -9.93200560
     47.16000000	      0.20267980	     66.14697742	    -74.81942246	      3.35634367	     -9.95338936
     47.17000000	      0.20267010	     66.12290394	    -74.80915463	      3.34846427	    -10.01657061
     47.18000000	      0.20267619	     66.13477025	    -74.79838979	      3.33722848	    -10.03390249
     47.19000000	      0.20268592	     66.14301725	    -74.78854326	      3.32784819	    -10.05230251
     47.20000000	      0.20269766	     66.14823259	    -74.78059934	      3.32094401	    -10.07132310
     47.21000000	      0.20269722	     66.14077246	    -74.77727366	      3.31987798	    -10.10189101
     47.22000000	      0.20270441	     66.15032863	    -74.77670225	      3.31941837	    -10.10938476
     47.23000000	      0.20272047	     66.15907340	    -74.77583616	      3.31949856	    -10.11514654
     47.24000000	      0.20274051	     66.16735133	    -74.77618204	      3.32073624	    -10.11908985
     47.25000000	      0.20275834	     66.20695910	    -74.78065596	      3.32289320	    -10.08219463
     47.26000000	      0.20277061	     66.21419133	    -74.78748374	      3.33008410	    -10.08243664
     47.27000000	      0.20277664	     66.22379450	    -74.79644344	      3.33934544	    -10.07805567
     47.28000000	      0.20278068	     66.23632623	    -74.80678554	      3.34958046	    -10.06964651
     47.29000000	      0.20279571	     66.27822405	    -74.81370819	      3.35460512	    -10.02748304
     47.30000000	      0.20280632	     66.28426377	    -74.82383047	      3.36474639	    -10.02934578
     47.31000000	      0.20280080	     66.29248402	    -74.83493282	      3.37696339	    -10.02851033
     47.32000000	      0.20280698	     66.30184602	    -74.84446281	      3.38689743	    -10.02982651
     47.33000000	      0.20281702	     66.31247392	    -74.85244082	      3.39544362	    -10.03302051
     47.34000000	      0.20283221	     66.32374683	    -74.85857666	      3.40222371	    -10.03987366
     47.35000000	      0.20285604	     66.33669509	    -74.86148789	      3.40572077	    -10.05112791
     47.36000000	      0.20287613	     66.35159634	    -74.86506834	      3.40924329	    -10.06605561
     47.37000000	      0.20288471	     66.33461663	    -74.86756378	      3.41491118	    -10.12702264
     47.38000000	      0.20288955	     66.35805516	    -74.86950969	      3.41588433	    -10.14946601
     47.39000000	      0.20289270	     66.33898680	    -74.86663840	      3.41683826	    -10.23418556
     47.40000000	      0.20287708	     66.34501080	    -74.86365973	      3.41570305	    -10.30144608
     47.41000000	      0.20284893	     66.35598880	    -74.85903093	      3.41300358	    -10.37685508
     47.42000000	      0.20281148	     66.39786878	    -74.85072921	      3.40519185	    -10.43082977
     47.43000000	      0.20272262	     66.39690152	    -74.84575934	      3.40584589	    -10.55133861
     47.44000000	      0.20262466	     66.42884629	    -74.83663409	      3.40155378	    -10.64923024
     47.45000000	      0.20250800	     66.46933126	    -74.82537761	      3.39659059	    -10.75355221
     47.46000000	      0.20238045	     66.51940983	    -74.81202903	      3.39078780	    -10.86310559
     47.47000000	      0.20225134	     66.58021527	    -74.79624796	      3.38358853	    -10.97675868
     47.48000000	      0.20213398	     66.67503418	    -74.77659700	      3.37151241	    -11.06709471
     47.49000000	      0.20202633	     66.73889588	    -74.75414745	      3.36138813	    -11.21175656
     47.50000000	      0.20194921	     66.85331932	    -74.72643287	      3.34356209	    -11.31382440
     47.51000000	      0.20189733	     66.97462410	    -74.69383362	      3.32278268	    -11.42543128
     47.52000000	      0.20187216	     67.10679460	    -74.65655609	      3.29907361	    -11.54181696
     47.53000000	      0.20187218	     67.25070929	    -74.61479571	      3.27284908	    -11.66225789
     47.54000000	      0.20188882	     67.40694734	    -74.56814653	      3.24508550	    -11.78454523
     47.55000000	      0.20191205	     67.61541671	    -74.52160006	      3.21613415	    -11.86230443
     47.56000000	      0.20195438	     67.79244641	    -74.47007552	      3.18936683	    -11.99530202
     47.57000000	      0.20198507	     68.04074138	    -74.42228628	      3.16387038	    -12.06071532
     47.58000000	      0.20201875	     68.23980373	    -74.37284688	      3.14573756	    -12.20437877
     47.59000000	      0.20204249	     68.51242029	    -74.32966340	      3.13043351	    -12.27819940
     47.60000000	      0.20206473	     68.73128460	    -74.28460190	      3.12359842	    -12.43862509
     47.61000000	      0.20207779	     69.02681292	    -74.24594714	      3.11970672	    -12.52801838
     47.62000000	      0.20209657	     69.26716892	    -74.20544816	      3.12425987	    -12.70804374
     47.63000000	      0.20211226	     69.58426836	    -74.17019547	      3.13085849	    -12.81968289
     47.64000000	      0.20213885	     69.85051179	    -74.13087467	      3.14393307	    -13.01956531
     47.65000000	      0.20216225	     70.18575057	    -74.09665980	      3.15977340	    -13.16168899
     47.66000000	      0.20218916	     70.47672013	    -74.06028923	      3.18307475	    -13.38507826
     47.67000000	      0.20221044	     70.81968110	    -74.02806611	      3.21031454	    -13.57224747
     47.68000000	      0.20222709	     71.13663587	    -73.99613325	      3.24562176	    -13.81977770
     47.69000000	      0.20223227	     71.51321988	    -73.96954230	      3.28505636	    -14.02494342
     47.70000000	      0.20222574	     71.91682533	    -73.94632698	      3.32973794	    -14.23085931
     47.71000000	      0.20220106	     72.37592676	    -73.92778558	      3.37827141	    -14.40569211
     47.72000000	      0.20216609	     72.89613252	    -73.91300209	      3.42944094	    -14.54086546
     47.73000000	      0.20210806	     73.47784793	    -73.90057975	      3.48344235	    -14.63879583
     47.74000000	      0.20202777	     74.11831893	    -73.89089707	      3.54144538	    -14.70024751
     47.75000000	      0.20193387	     74.81502468	    -73.87744521	      3.59955128	    -14.73026291
     47.76000000	      0.20182346	     75.56824933	    -73.86373125	      3.66050151	    -14.72482295
     47.77000000	      0.20167945	     76.37358929	    -73.85393146	      3.72852497	    -14.68897604
